<svg width="1327" height="415" viewBox="0 0 1327 415" fill="none" xmlns="http://www.w3.org/2000/svg">
<g clip-path="url(#clip0_9_131)">
<path d="M706.469 416C705.356 415.335 704.787 414.189 704.057 414.074C680.713 410.396 662.647 398.657 650.013 378.701C647.114 374.122 644.293 369.417 642.148 364.462C640.197 359.952 639.213 355.024 637.803 350.28C638.22 350 638.638 349.721 639.055 349.441C640.624 351.454 642.285 353.402 643.74 355.494C646.212 359.05 647.466 358.704 650.694 356.06C654.797 352.7 659.644 350.25 664.732 347.055C664.868 350.054 664.948 351.815 665.023 353.473C661.622 354.661 658.309 355.654 655.159 357.019C654.201 357.434 653.147 358.87 653.128 359.857C653.11 360.818 654.161 362.115 655.095 362.713C657.033 363.954 659.128 365.09 661.315 365.744C662.381 366.063 664.57 365.574 664.934 364.817C667.324 359.857 670.738 358.003 676.063 360.058C677.051 360.44 678.265 360.233 680.189 360.346C679.747 357.544 679.51 355.185 678.989 352.89C677.369 345.756 677.327 345.765 684.443 344.971C685.226 344.883 686.009 344.804 688.311 344.561C687.256 348.652 686.533 352.029 685.496 355.308C684.565 358.254 683.193 361.06 682.23 363.998C681.983 364.754 682.232 366.239 682.778 366.603C689.319 370.962 691.187 377.951 692.85 384.861C693.956 389.454 696.575 390.824 700.596 389.713C704.397 388.664 707.002 386.724 705.296 381.774C703.865 377.623 703.168 373.157 702.685 368.771C702.49 367.009 703.289 364.738 704.413 363.31C707.263 359.686 710.553 356.409 714.841 351.705C718.137 353.864 722.661 356.827 727.109 359.739C732.256 354.145 737.732 348.605 742.619 342.586C743.809 341.12 743.062 338.081 743.254 334.999C747.227 334.999 751.307 335.003 755.387 334.998C761.314 334.99 767.995 328.429 767.998 322.595C768.006 308.768 768.001 294.942 768.001 281.115C768.001 279.503 768.001 277.892 768.001 276.28C768.464 275.974 768.928 275.668 769.392 275.362C774.085 280.654 778.777 285.947 783.155 290.883C782.906 292.012 782.945 292.485 782.753 292.615C777.258 296.326 776.425 301.666 776.919 307.792C777.32 312.757 776.734 317.802 777.122 322.769C777.294 324.963 778.3 327.504 779.775 329.109C785.17 334.985 785.304 334.862 795.677 335.07C797.083 345.563 794.661 355.646 790.71 365.06C786.514 375.058 780.612 384.178 772.678 391.994C761.074 403.424 747.358 410.445 731.65 414.011C730.809 414.202 730.083 414.899 729.652 415.681C722.313 416 714.625 416 706.469 416Z" fill="#FEFEFE"/>
<path d="M542.532 1C543.723 1.67393 544.41 2.89303 545.173 2.94297C572.044 4.7008 596.676 13.2258 619.495 27.3093C619.771 27.4795 619.992 27.737 621.269 28.8569C615.438 28.8569 610.649 28.8212 605.862 28.8659C599.798 28.9226 594.944 33.7564 594.941 39.7258C594.932 66.7051 594.937 93.6845 594.937 120.111C592.673 119.053 590.191 118.185 588.058 116.785C586.824 115.975 585.418 114.344 585.354 113.021C585.064 107.054 585.231 101.066 585.226 95.0857C585.22 87.6218 579.546 81.8442 572.208 81.8434C541.394 81.84 510.579 81.842 479.378 81.842C479.378 78.663 479.378 75.6287 479.378 72.0926C481.115 72.0926 482.897 72.0926 484.679 72.0926C513.839 72.0926 542.998 72.0931 572.158 72.0923C580.597 72.092 585.205 67.5815 585.225 59.2833C585.238 53.4699 585.035 47.6477 585.298 41.8461C585.46 38.2564 584.347 35.7329 581.833 33.1045C578.834 29.9705 575.757 28.8445 571.447 28.8578C531.124 28.9819 490.8 28.8834 450.476 28.8495C449.354 28.8485 448.232 28.8494 446.672 27.8513C452.328 24.7047 457.837 21.2484 463.669 18.469C482.084 9.69196 501.426 4.22676 521.876 2.97398C522.853 2.91412 523.787 2.15073 524.371 1.35749C530.021 1.00001 536.043 1.00001 542.532 1Z" fill="#F9F9F9"/>
<path d="M1328 208.6C1326.51 208.019 1325.01 207.038 1323.24 205.874C1319.69 208.99 1315.83 209.513 1310.82 208.559C1304.82 207.414 1298.41 208.233 1292.18 208.412C1288.61 208.514 1285.22 208.591 1283.25 204.858C1280.96 207.166 1278.65 209.379 1274.94 208.387C1274.31 208.218 1273.4 208.511 1273 208.159C1269.2 204.888 1264.65 208.223 1263.49 209.697C1261.26 212.527 1259.19 211.069 1257.35 211.055C1252.84 211.022 1248.07 213.022 1243.82 209.834C1243.34 209.474 1242.44 209.581 1242.08 209.169C1241.02 207.926 1240.13 206.533 1239.17 205.199C1236.98 206.875 1234.9 208.714 1232.57 210.162C1231.31 210.947 1229.33 211.816 1228.19 211.36C1222.37 209.04 1218.83 209.251 1213.59 213.148C1212.78 211.992 1211.99 210.835 1211.17 209.704C1209.31 207.157 1207.89 207.557 1206.34 210.152C1205.83 211.017 1204.21 211.85 1203.29 211.672C1202.35 211.49 1201.48 210.151 1200.89 209.138C1200.12 207.822 1199.66 206.328 1199.07 204.91C1197.83 205.991 1196.6 207.083 1195.35 208.145C1194.99 208.448 1194.56 208.664 1194.21 208.887C1193.12 207.509 1192.08 206.207 1191.05 204.906C1190.1 205.968 1189.16 207.034 1188.2 208.092C1187.76 208.585 1187.32 209.451 1186.84 209.485C1184.14 209.671 1181.28 209.13 1178.77 209.844C1175.8 210.684 1173.15 212.636 1171.77 207.95C1171.71 207.771 1168.57 207.928 1167.53 208.759C1166.17 209.845 1165.47 211.762 1164.49 213.32C1164.37 212.709 1164.26 212.097 1164.14 211.485C1162.28 210.962 1160.42 210.422 1158.55 209.927C1158.08 209.805 1157.35 210.023 1157.13 209.759C1151.42 202.884 1151.45 210.115 1149.62 212.781C1149.34 213.188 1148.99 213.543 1149.15 213.347C1145.17 211.999 1141.56 210.776 1137.95 209.554C1137.72 210.004 1137.49 210.453 1137.27 210.902C1137.08 209.649 1136.89 208.395 1136.52 205.903C1134.65 207.253 1133.25 208.004 1132.19 209.088C1130.73 210.588 1129.67 212.49 1128.18 213.949C1125.16 216.888 1123.5 214.765 1122.05 212.085C1121.39 210.849 1120.6 209.679 1119.86 208.479C1119.2 209.753 1118.54 211.033 1117.86 212.3C1117.41 213.149 1116.92 213.981 1116.26 215.159C1110.07 214.19 1103.79 213.205 1097.14 212.163C1097.19 215.142 1096.53 217.847 1092.53 216.961C1089.22 216.23 1086.4 215.451 1086.87 210.746C1087.4 205.473 1086.99 200.106 1086.99 193.767C1091.41 197.603 1097.29 194.857 1101.48 200.334C1103.96 203.579 1103.61 197.676 1104.66 196.502C1107.69 195.597 1110.39 194.792 1113.67 193.814C1113.45 195.324 1113.24 196.357 1113.16 197.4C1112.93 200.184 1114.41 200.644 1116.52 199.543C1119.54 197.96 1122.59 196.353 1125.37 194.391C1128.61 192.103 1130.68 193.055 1132.44 196.13C1134.48 199.69 1140.68 199.768 1143.43 196.495C1144.14 195.641 1146.52 194.84 1146.78 195.149C1149.82 198.778 1154.67 196.078 1158.13 199.352C1158.7 197.194 1159.09 195.734 1159.67 193.561C1161.47 196.108 1166.09 194.401 1165.67 199.134C1165.65 199.31 1167.58 199.994 1168.52 199.851C1170.69 199.517 1172.82 198.823 1174.97 198.275C1175.08 198.672 1175.2 199.07 1175.32 199.467C1176.3 198.345 1177.23 197.183 1178.25 196.11C1180.23 194.038 1182 193.899 1183.96 196.38C1185.13 197.858 1186.92 198.846 1188.96 200.477C1189.39 198.123 1189.62 196.856 1190.05 194.513C1191.46 196.976 1192.37 198.576 1192.74 199.227C1196.14 198.311 1198.6 197.703 1201.02 196.983C1203.31 196.305 1205.56 195.524 1207.82 194.753C1208.27 194.598 1208.72 194.023 1209.08 194.091C1212.13 194.648 1214.95 195.642 1218.34 194.699C1219.83 194.284 1222.04 197.464 1224.2 198.173C1227.57 199.281 1229.61 197.091 1231.72 194.549C1232.65 193.43 1235.82 192.959 1237.16 193.687C1239.01 194.689 1240.09 197.106 1242.01 199.571C1243.8 198.734 1245.97 197.719 1248.92 196.338C1249.7 196.627 1251.51 197.304 1253.32 197.979C1254.11 196.052 1254.77 194.416 1255.44 192.781C1255.84 192.884 1256.24 192.988 1256.64 193.091C1256.88 194.483 1257.12 195.874 1257.47 197.843C1260.75 197.843 1264.04 197.913 1267.32 197.823C1270.68 197.732 1273.84 197.666 1276.35 200.723C1276.98 201.485 1279.4 201.04 1280.91 200.744C1283.55 200.229 1286.3 198.139 1288.19 202.078C1288.47 202.653 1289.82 202.915 1290.7 202.963C1302.33 203.598 1313.95 204.167 1325.58 204.761C1326.08 204.786 1326.57 204.895 1327.53 204.982C1328 206.067 1328 207.133 1328 208.6Z" fill="#F9F9F9"/>
<path d="M1268.98 385.683C1268.81 391.551 1265.51 394.914 1260.3 394.915C1216.14 394.924 1171.99 394.967 1127.83 394.813C1124.93 394.803 1121.8 393.675 1119.23 392.25C1117.94 391.533 1117.02 388.986 1117.01 387.26C1116.88 361.601 1116.9 335.94 1116.93 310.28C1116.94 305.349 1119.42 303.185 1124.9 303.184C1159.72 303.175 1194.54 303.181 1229.37 303.178C1236.55 303.178 1238.97 300.696 1238.97 293.355C1238.97 290.189 1238.97 287.023 1238.97 283.857C1238.97 274.817 1236.98 272.778 1228.12 272.778C1195.13 272.778 1162.14 272.782 1129.15 272.768C1127.32 272.767 1125.46 272.792 1123.67 272.5C1119.42 271.807 1116.82 269.569 1116.9 264.881C1116.99 260.051 1116.91 255.217 1116.92 250.385C1116.93 244.036 1118.48 242.448 1124.8 242.446C1161.62 242.435 1198.45 242.441 1235.27 242.441C1243.77 242.441 1252.27 242.413 1260.76 242.45C1265.74 242.472 1268.95 245.709 1268.95 250.699C1268.97 275.526 1268.98 300.353 1268.97 325.18C1268.97 330.601 1265.65 333.96 1260.32 333.961C1225.17 333.968 1190.01 333.962 1154.85 333.967C1148.56 333.968 1146.97 335.568 1146.96 341.818C1146.96 345.983 1146.96 350.149 1146.96 354.315C1146.96 362.063 1149.55 364.722 1157.11 364.722C1191.26 364.723 1225.42 364.72 1259.58 364.722C1266.38 364.722 1268.95 367.333 1268.96 374.224C1268.96 377.89 1268.97 381.555 1268.98 385.683Z" fill="#FCFCFC"/>
<path d="M571.116 90.2042C577.2 93.352 576.84 98.4237 576.768 103.988C576.522 122.971 576.839 141.96 576.912 160.947C576.936 167.199 574.174 170.009 568.076 170.009C529.428 170.015 490.779 170.016 452.13 170.007C446.155 170.006 443.862 167.657 443.841 161.597C443.83 158.599 443.834 155.6 443.84 152.601C443.855 145.993 445.843 143.956 452.326 143.954C481.979 143.949 511.632 143.953 541.285 143.951C548.164 143.95 550.192 141.908 550.095 135.2C550.045 131.702 550.106 128.203 550.078 124.705C550.034 119.386 547.576 116.957 542.161 116.955C513.341 116.942 484.521 116.951 455.701 116.944C453.87 116.944 452.034 116.941 450.208 116.823C446.101 116.556 443.839 114.455 443.839 110.202C443.84 88.212 443.83 66.2223 443.845 44.2325C443.848 39.9882 446.003 37.8344 450.287 37.835C490.102 37.84 529.916 37.8269 569.731 37.8544C574.442 37.8577 576.885 40.4879 576.915 45.3259C576.934 48.4813 576.839 51.639 576.923 54.7923C577.081 60.751 574.324 63.7046 568.311 63.7091C541.157 63.7296 514.003 63.7181 486.848 63.7181C483.683 63.7181 480.517 63.6654 477.353 63.7301C472.702 63.8252 470.049 66.4827 469.993 71.0952C469.944 75.0927 469.955 79.0916 469.989 83.0894C470.032 88.0273 472.176 90.1436 477.268 90.151C495.084 90.1771 512.899 90.1594 530.714 90.1603C544.041 90.161 557.368 90.1648 571.116 90.2042Z" fill="#FDFDFD"/>
<path d="M626.761 272C626.602 254.856 626.379 238.212 626.316 221.568C626.289 214.584 626.636 207.599 626.75 200.614C626.843 194.913 628.382 193.333 634.19 193.331C665.503 193.32 696.816 193.339 728.129 193.316C735.955 193.311 743.781 193.143 751.607 193.136C756.202 193.133 758.974 195.866 758.977 200.393C758.998 239.868 758.999 279.342 758.976 318.817C758.973 323.284 756.407 325.896 752.047 325.958C747.885 326.018 743.719 325.988 739.556 325.929C735.121 325.866 732.907 323.526 732.903 319.122C732.89 306.297 732.916 293.472 732.9 280.647C732.892 275.02 730.734 272.793 725.199 272.787C703.546 272.764 681.894 272.764 660.241 272.789C654.893 272.795 652.17 275.603 652.16 281.057C652.137 293.549 652.173 306.041 652.144 318.533C652.132 323.796 649.928 325.935 644.6 325.968C641.102 325.99 637.603 326.002 634.107 325.943C628.951 325.855 626.272 323.192 626.306 317.932C626.406 302.787 626.603 287.644 626.761 272ZM732.892 240.771C732.898 236.279 732.938 231.787 732.898 227.295C732.855 222.331 729.563 219.042 724.574 219.037C703.279 219.015 681.983 219.123 660.689 218.957C655.77 218.918 653.89 221.815 652.1 225.006C653.7 225.952 654.834 226.622 655.968 227.293C654.763 228.266 653.558 229.239 652.15 230.377C652.15 232.422 652.148 234.749 652.151 237.077C652.158 244.159 654.074 246.037 661.304 246.037C682.099 246.038 702.895 245.92 723.688 246.137C727.8 246.18 730.71 245.05 732.892 240.771Z" fill="#FCFCFC"/>
<path d="M124.9 119C124.9 94.1704 124.895 69.8407 124.905 45.511C124.907 39.677 126.735 37.8454 132.557 37.8439C164.052 37.8356 195.548 37.7794 227.042 37.9664C229.345 37.98 232.144 39.2489 233.846 40.8533C241.119 47.7072 248.164 54.813 255.052 62.056C256.473 63.5506 257.573 66.0109 257.615 68.0507C257.901 82.0421 257.904 96.0401 257.911 110.036C257.913 114.511 255.323 116.991 250.857 117.065C248.024 117.112 245.127 116.716 242.381 117.204C240.647 117.512 238.445 118.746 237.742 120.192C237.153 121.403 237.91 124.007 238.975 125.156C243.953 130.531 249.452 135.431 254.316 140.899C256.108 142.913 256.898 145.955 257.702 148.66C258.206 150.356 257.924 152.297 257.927 154.128C257.949 166.965 256.859 167.923 243.792 165.866C242.366 165.641 240.937 164.404 239.835 163.309C225.536 149.095 211.228 134.888 197.102 120.503C194.539 117.893 191.979 116.905 188.385 116.997C179.225 117.23 170.056 117.073 160.891 117.075C153.611 117.076 150.992 119.629 150.991 126.731C150.988 138.895 151.006 151.06 150.982 163.225C150.972 168.167 148.353 170.821 143.482 170.87C139.983 170.905 136.48 170.953 132.984 170.833C127.47 170.644 124.913 167.972 124.906 162.494C124.888 148.163 124.9 133.832 124.9 119ZM159.738 90.1619C181.029 90.2595 202.319 90.3857 223.609 90.4329C228.366 90.4434 230.908 87.8262 230.967 83.1361C231.018 79.1439 231.022 75.1499 230.966 71.1578C230.902 66.5997 228.219 63.9924 223.524 63.9873C201.896 63.9637 180.269 63.9614 158.641 63.9891C154.078 63.9949 151.057 67.0606 150.999 71.6249C150.954 75.1181 150.984 78.6123 150.991 82.106C151.004 88.269 152.678 89.9911 159.738 90.1619Z" fill="#FDFDFD"/>
<path d="M538 193.327C548.826 193.327 559.155 193.193 569.475 193.439C571.527 193.488 574.017 194.489 575.499 195.899C582.858 202.898 590.031 210.1 597.057 217.434C598.383 218.819 599.405 221.115 599.444 223.014C599.733 237.162 599.786 251.316 599.804 265.468C599.809 269.561 596.717 272.589 592.636 272.758C590.142 272.861 587.593 272.482 585.157 272.869C583.155 273.187 580.583 273.783 579.502 275.2C577.471 277.862 579.668 279.983 581.674 281.927C586.338 286.446 590.721 291.267 595.538 295.612C598.5 298.284 599.928 301.199 599.77 305.138C599.63 308.628 599.593 312.148 599.907 315.619C600.116 317.939 601.019 320.198 601.647 322.621C599.193 322.038 596.884 320.811 594.797 321.114C586.934 322.253 581.557 319.029 576.256 313.395C564.052 300.422 551.247 288.008 538.499 275.558C536.938 274.033 534.256 272.956 532.061 272.899C521.576 272.626 511.079 272.745 500.587 272.791C495.54 272.813 492.993 275.371 492.981 280.377C492.951 292.868 492.981 305.359 492.967 317.849C492.96 323.516 490.544 325.95 484.936 325.969C479.622 325.986 474.309 325.973 468.151 325.973C467.657 321.883 466.772 317.915 466.761 313.945C466.655 276.64 466.695 239.334 466.7 202.028C466.701 194.966 468.376 193.328 475.547 193.327C496.198 193.325 516.849 193.327 538 193.327ZM573.021 224.231C571.023 220.308 568.01 218.873 563.454 218.924C542.623 219.162 521.789 219.016 500.956 219.038C496.024 219.043 493.019 222.029 492.978 226.884C492.943 231.05 492.95 235.217 492.977 239.384C493.005 243.83 495.284 246.031 499.722 246.037C521.887 246.066 544.053 246.117 566.219 246.114C570.652 246.113 573.147 243.475 573.118 239.112C573.087 234.446 573.071 229.78 573.021 224.231Z" fill="#FDFDFD"/>
<path d="M358.032 202.095C360.325 198.546 362.618 194.996 364.808 191.605C368.682 193.739 372.343 195.757 376.005 197.774C376.383 197.371 376.76 196.968 377.138 196.565C376.333 190.928 375.527 185.291 374.631 179.015C384.711 179.015 394.321 179.015 403.931 179.015C405.931 179.015 408.014 178.648 409.916 179.08C417.298 180.757 421.145 175.776 425.143 171.184C425.867 170.352 425.943 168.777 425.961 167.54C426.042 161.874 425.659 156.181 426.097 150.549C426.49 145.484 425.027 141.821 421.181 138.426C418.52 136.077 416.152 134.807 412.516 134.879C400.547 135.118 388.57 134.969 376.193 134.969C379.242 117.54 384.622 101.517 392.957 86.5028C393.268 85.9437 393.815 85.4793 393.998 84.8917C397.315 74.2601 404.256 70.0969 415.377 71.9575C419.881 72.711 425.952 65.9067 425.993 61.2069C426.014 58.7072 426.513 56.0722 425.902 53.7317C423.802 45.6822 427.961 41.001 434.941 36.7646C434.941 45.524 434.941 53.8878 434.941 62.2516C434.941 79.5842 434.935 96.9168 434.945 114.249C434.948 120.011 441.024 125.995 446.821 125.995C472.652 125.994 498.482 125.996 524.312 125.997C525.778 125.997 527.244 125.997 529.622 125.997C526.653 129.104 524.25 131.617 521.109 134.903C499.191 134.903 476.039 134.896 452.887 134.909C447.666 134.912 442.077 133.942 438.794 139.659C437.451 141.999 435.324 144.33 435.117 146.796C434.589 153.085 435.161 159.458 434.854 165.776C434.684 169.268 436.072 171.479 438.267 173.999C441.729 177.975 445.581 179.25 450.798 179.144C466.957 178.814 483.133 179.249 499.29 178.867C503.839 178.76 505.938 180.809 508.523 184.792C495.704 184.792 483.64 184.938 471.583 184.711C467.49 184.633 464.43 185.555 461.546 188.692C459.031 191.427 457.796 193.937 457.816 197.775C457.993 231.106 457.918 264.439 457.918 297.771C457.918 299.074 457.918 300.378 457.918 302.602C436.721 291.518 419.922 276.505 405.736 258.032C410.07 255.453 414.729 253.306 414.937 247.574C415.109 242.83 414.972 238.075 414.972 232.998C417.926 232.998 421.442 232.68 424.876 233.074C429.799 233.638 433.707 232.204 436.342 228.092C437.583 226.156 438.874 223.772 438.855 221.603C438.805 215.767 441.154 209.056 434.409 205.007C432.965 204.14 431.293 203.098 429.72 203.088C410.222 202.965 390.722 202.931 371.225 203.142C368.875 203.168 366.543 204.772 363.261 205.995C362.431 205.459 360.548 204.243 358.359 202.729C358.053 202.432 358.032 202.095 358.032 202.095Z" fill="#FDFDFD"/>
<path d="M945.247 207.379C945.321 206.42 945.461 205.923 945.446 205.431C945.03 191.308 949.681 193.283 959.071 193.317C972.468 193.365 972.279 193.487 980.874 203.786C1001.49 228.487 1022.27 253.042 1043.07 277.589C1044.47 279.245 1045.38 281.761 1049.02 280.376C1052.57 279.026 1051.79 276.693 1051.8 274.396C1051.84 250.077 1051.82 225.758 1051.83 201.439C1051.83 195.266 1053.71 193.356 1059.72 193.331C1063.55 193.316 1067.38 193.226 1071.21 193.355C1075.52 193.5 1077.94 195.797 1077.94 200.188C1077.97 239.832 1077.99 279.476 1077.96 319.119C1077.95 323.478 1075.55 325.852 1071.2 325.945C1066.04 326.057 1060.85 326.212 1055.72 325.851C1053.71 325.71 1051.19 324.735 1049.93 323.262C1029.89 299.831 1010.02 276.26 990.123 252.716C986.802 248.788 983.659 244.693 980.117 240.976C978.931 239.731 976.779 238.857 975.038 238.804C971.71 238.705 971.949 241.393 971.952 243.802C971.983 268.288 971.973 292.774 971.97 317.259C971.969 323.557 969.632 325.957 963.506 325.97C960.341 325.977 957.176 325.992 954.011 325.965C947.502 325.909 945.65 323.977 945.648 317.253C945.643 298.931 945.699 280.608 945.632 262.285C945.565 244.138 945.376 225.991 945.247 207.379Z" fill="#FDFDFD"/>
<path d="M865.029 243.001C865.029 259.333 865.019 275.165 865.034 290.998C865.039 296.446 867.704 299.162 873.129 299.23C885.618 299.387 898.108 299.513 910.598 299.643C916.504 299.704 918.308 301.509 918.405 307.341C918.467 310.999 918.757 314.656 918.753 318.313C918.748 323.244 916.011 325.962 911.134 325.964C872.137 325.975 833.139 325.977 794.142 325.949C788.274 325.945 786.035 323.663 786.012 317.928C785.998 314.262 785.99 310.595 786.014 306.929C786.047 301.977 788.251 299.678 793.179 299.66C805.678 299.616 818.177 299.661 830.677 299.639C836.62 299.629 838.972 297.22 838.974 291.2C838.98 269.868 838.982 248.536 838.97 227.204C838.967 221.596 836.462 219.042 830.94 219.034C818.441 219.014 805.942 219.045 793.443 219.018C788.143 219.006 786.052 216.852 786.024 211.494C786.006 207.827 785.986 204.16 786.031 200.494C786.084 196.053 788.611 193.35 792.962 193.346C832.459 193.313 871.957 193.313 911.454 193.345C916.052 193.349 918.266 195.762 918.4 200.472C918.496 203.797 919.263 207.248 918.611 210.411C917.839 214.154 915.862 217.648 914.647 220.659C911.776 219.883 910.199 219.099 908.614 219.085C896.783 218.98 884.95 219.004 873.117 219.04C868.413 219.054 865.086 222.353 865.04 227.002C864.989 232.168 865.028 237.335 865.029 243.001Z" fill="#FDFDFD"/>
<path d="M359 37.8396C376.163 37.8394 392.827 37.83 409.49 37.8444C414.963 37.8491 416.617 39.4903 416.69 44.8232C416.74 48.487 416.84 52.1502 416.875 55.814C416.927 61.2937 414.614 63.6994 409.21 63.71C396.712 63.7346 384.215 63.7043 371.717 63.7238C365.77 63.7331 363.976 65.4985 363.973 71.3122C363.964 92.8077 363.964 114.303 363.973 135.799C363.976 141.657 366.203 143.939 371.941 143.947C384.272 143.964 396.602 143.942 408.933 143.957C414.699 143.965 416.919 146.281 416.885 152.125C416.864 155.619 416.906 159.114 416.876 162.609C416.835 167.254 414.208 169.997 409.629 169.999C370.137 170.019 330.645 170.019 291.153 169.992C286.63 169.989 284.199 167.508 284.133 162.989C284.077 159.158 284.101 155.324 284.126 151.492C284.162 146.094 286.234 143.971 291.568 143.961C304.232 143.936 316.896 143.966 329.56 143.947C335.112 143.938 337.661 141.396 337.634 135.754C337.529 114.268 337.383 92.7816 337.231 71.2955C337.194 66.1157 334.867 63.7469 329.724 63.7289C318.56 63.6897 307.395 63.7413 296.231 63.696C294.078 63.6873 291.905 63.5454 289.779 63.2177C286.247 62.6731 284.154 60.6539 284.126 56.9075C284.1 53.2418 284.114 49.5757 284.123 45.9098C284.139 39.7058 285.932 37.8482 292.014 37.8447C314.176 37.8319 336.338 37.8396 359 37.8396Z" fill="#FDFDFD"/>
<path d="M648.892 90.1542C654.798 91.0884 658.587 88.7991 662.368 84.902C676.632 70.1971 691.32 55.9044 705.676 41.2876C708.245 38.672 710.795 37.4896 714.411 37.7698C718.054 38.052 721.757 37.6053 725.39 37.9425C726.844 38.0774 728.929 39.1725 729.37 40.3421C729.831 41.5642 729.139 43.8739 728.129 44.899C714.22 59.0206 700.218 73.0513 686.106 86.9697C683.789 89.2548 682.771 91.5402 682.898 94.799C683.196 102.432 681.122 110.908 683.814 117.485C686.434 123.889 693.778 128.367 699.069 133.669C708.364 142.984 717.57 152.391 727.045 161.519C729.74 164.115 730.711 166.415 728.272 170.016C723.051 170.016 717.399 170.202 711.773 169.895C710.227 169.811 708.498 168.518 707.299 167.329C691.332 151.496 675.493 135.531 659.454 119.77C657.904 118.247 655.278 117.247 653.07 117.079C647.936 116.689 642.752 116.939 637.588 116.959C632.074 116.98 629.747 119.226 629.732 124.686C629.697 137.179 629.737 149.672 629.714 162.165C629.704 167.475 627.188 169.984 621.933 170.014C618.435 170.034 614.936 170.031 611.438 170.013C605.725 169.984 603.436 167.74 603.377 161.82C603.293 153.519 603.348 145.218 603.347 136.917C603.346 106.766 603.343 76.6161 603.35 46.4659C603.351 39.2961 604.849 37.8359 612.108 37.8324C615.44 37.8308 618.771 37.8213 622.103 37.8345C627.899 37.8575 629.718 39.7238 629.72 45.6447C629.724 57.945 629.707 70.2453 629.727 82.5456C629.737 88.549 631.334 90.1056 637.446 90.1491C641.101 90.1751 644.755 90.1544 648.892 90.1542Z" fill="#FAFAFA"/>
<path d="M338.99 202.787C326.176 202.869 313.361 202.963 300.546 203.03C293.613 203.066 288.885 207.693 288.876 214.508C288.872 217.163 288.875 219.818 288.875 222.632C285.096 224.291 280.616 212.99 277.738 222.369C271.294 221.639 264.825 220.906 257.452 220.071C257.394 219.796 257.036 218.097 256.653 216.279C255.02 215.808 253.334 215.322 251.649 214.835C251.004 217.058 250.421 219.071 249.837 221.084C249.431 221.053 249.024 221.021 248.617 220.99C248.407 220.16 248.243 219.315 247.978 218.503C246.734 214.682 243.387 214.187 240.426 216.922C238.584 218.623 236.049 219.572 233.708 220.927C230.786 218.125 227.79 215.253 224.505 212.103C223.497 215.527 222.845 217.741 222.114 220.224C216.701 215.899 212.573 216.081 211.151 218.988C207.454 219.772 204.544 221.039 201.767 220.794C198.959 220.547 196.283 218.802 193.032 217.508C193.032 219.97 193.032 221.714 193.032 224.257C190.701 223.686 188.829 223.228 186.856 222.745C187.379 220.413 187.795 218.554 188.212 216.695C187.901 216.319 187.59 215.944 187.28 215.568C183.817 217.799 180.354 220.031 178.251 221.386C173.486 218.249 169.645 215.604 165.638 213.243C165.177 212.971 163.333 214.059 162.924 214.902C162.18 216.437 162.032 218.26 161.471 220.668C160.474 219.343 159.992 218.398 159.247 217.761C153.151 212.554 152.805 212.22 147.088 217.606C142.148 222.259 137.345 225.119 130.565 222.085C129.891 221.784 128.92 222.002 128.119 222.151C123.214 223.067 117.442 226.091 113.637 224.471C108.652 222.349 105.318 224.148 101.058 224.618C98.0061 224.954 93.3438 227.219 90.7449 222.356C90.5433 221.979 87.2425 223.258 84.2559 224.075C85.8694 220.974 87.3458 215.869 88.7348 215.892C92.891 215.963 97.013 218.041 102.184 219.66C104.273 218.203 107.189 217.437 111.2 220.025C115.237 222.63 121.24 217.272 121.033 210.758C122.895 211.237 124.6 211.46 126.121 212.115C128.788 213.263 131.293 214.792 133.975 215.896C134.644 216.171 135.881 215.623 136.555 215.08C136.86 214.835 136.682 213.223 136.288 213C133.085 211.188 131.713 208.583 131.762 204.896C131.774 204.038 130.237 203.159 129.152 202.015C137.453 199.645 143.657 206.726 151.258 206.46C154.424 201.271 155.004 201.379 159.907 205.487C161.643 206.942 164.296 207.371 166.598 208.038C167.229 208.221 168.408 207.809 168.816 207.274C174.595 199.696 177.856 199.631 184.908 206.937C185.422 207.469 186.603 207.699 187.359 207.536C187.864 207.426 188.635 206.207 188.482 205.763C187.343 202.476 186.001 199.258 184.739 196.056C185.696 195.732 187.293 195.191 189.324 194.504C189.181 199.822 191.839 199.501 195.34 197.916C198.448 196.508 201.604 194.907 204.903 194.334C206.749 194.014 209.09 195.338 210.915 196.417C213.058 197.683 214.883 199.487 217.653 201.704C218.407 198.477 218.768 196.935 219.184 195.154C223.138 195.281 227.836 198.481 230.364 192.545C232.314 193.982 233.878 195.784 235.813 196.382C237.841 197.008 240.253 196.689 242.448 196.402C245.172 196.046 248.112 194.294 250.487 194.924C255.919 196.364 260.782 195.57 265.76 193.567C269.957 191.877 275.335 194.509 277.901 199.746C280.094 198.764 282.307 197.773 285.312 196.427C287.911 197.971 291.164 199.23 294.774 195.227C296.193 193.654 299.73 193.167 302.1 196.322C303.448 198.117 307.589 200.342 307.987 199.937C312.483 195.35 318.359 196.539 323.667 195.73C325.973 195.379 328.443 196.111 330.839 196.351C330.807 196.831 330.776 197.312 330.744 197.792C332.903 197.178 335.062 196.563 337.75 195.798C338.196 197.669 338.602 199.37 339.002 201.696C338.996 202.321 338.99 202.787 338.99 202.787Z" fill="#F9F9F9"/>
<path d="M527.939 348.941C527.838 347.963 528.061 346.771 527.58 346.047C525.686 343.196 525.439 342.119 529.561 340.731C533.792 339.306 537.158 335.456 541.124 333.03C542.737 332.043 544.935 332.012 545.88 331.785C546.591 328.31 547.206 325.307 547.762 322.592C533.025 321.799 517.631 320.971 502.155 320.139C502.155 306.422 502.155 294.127 502.155 281.48C511.535 281.48 520.933 281.48 530.373 281.48C529.158 285.987 529.485 289.166 535.615 289.639C538.309 289.847 541.245 291.999 543.339 294.025C553.528 303.881 563.468 313.993 573.497 324.015C574.085 324.603 574.995 325.102 575.194 325.802C575.773 327.84 577.037 330.471 576.264 331.938C574.757 334.799 572.164 333.194 569.956 331.963C568.876 331.362 567.583 331.146 565.768 330.553C566.269 333.912 566.633 336.357 567.19 340.093C564.95 338.652 563.763 337.949 562.641 337.154C559.637 335.025 557.982 336.398 555.895 338.932C553.069 342.365 549.502 345.187 546.253 348.271C546.105 347.679 545.957 347.086 545.809 346.494C544.676 345.668 543.123 343.926 542.5 344.212C541.287 344.769 540.595 346.462 539.687 347.684C540.026 347.905 540.365 348.126 540.703 348.347C538.391 349.442 536.079 350.537 533.767 351.633C533.841 351.249 533.915 350.866 533.989 350.483C532.43 350.086 530.871 349.69 528.804 349.295C528.178 349.177 528.058 349.059 527.939 348.941ZM554.217 324.344C554.637 319.673 552.021 320.902 548.733 321.712C550.574 323.625 549.713 327.957 554.217 324.344Z" fill="#FCFCFC"/>
<path d="M319.001 212.026C329.991 212.021 340.482 212.01 350.973 212.018C356.291 212.022 357.9 213.523 357.909 218.643C357.935 234.282 357.943 249.922 357.904 265.562C357.891 270.619 356.034 272.353 351.018 272.352C335.053 272.346 319.088 272.349 303.123 272.359C299.07 272.362 297.64 270.175 297.624 266.344C297.557 250.536 297.354 234.727 297.253 218.919C297.221 213.85 299.017 212.059 304.014 212.019C308.842 211.98 313.672 212.021 319.001 212.026ZM309.693 246.484C309.694 249.642 309.692 252.8 309.698 255.959C309.703 258.803 311.071 260.211 313.978 260.242C322.778 260.335 331.577 260.568 340.377 260.595C344.144 260.607 346.106 258.6 346.075 254.681C346.008 246.204 346.009 237.726 346.038 229.248C346.051 225.559 344.22 223.676 340.623 223.65C331.979 223.589 323.333 223.542 314.692 223.676C311.435 223.727 309.548 225.431 309.635 229.033C309.767 234.515 309.684 240.003 309.693 246.484Z" fill="#F8F8F8"/>
<path d="M403.001 223.631C397.503 223.632 392.505 223.625 387.507 223.636C382.821 223.646 381.852 226.438 381.864 230.539C381.876 234.624 383.506 236.268 387.537 236.099C391.695 235.925 395.866 236.06 400.031 236.061C404.132 236.061 406.052 238.065 406.005 242.21C405.96 246.175 404.075 247.972 400.174 247.938C395.843 247.901 391.51 247.984 387.179 247.961C383.682 247.943 381.942 249.624 381.946 253.123C381.95 257.621 381.913 262.12 381.955 266.618C381.992 270.517 380.089 272.304 376.225 272.397C372.155 272.495 370.044 270.92 370.061 266.588C370.124 250.428 370.104 234.267 370.018 218.107C369.994 213.632 372.056 211.936 376.426 211.966C392.253 212.075 408.081 212.055 423.908 211.977C427.938 211.957 430.066 213.318 430.049 217.714C430.033 221.998 428.128 223.712 423.993 223.657C417.163 223.565 410.331 223.632 403.001 223.631Z" fill="#F8F8F8"/>
<path d="M362.609 300.909C360.126 308.041 357.937 314.918 355.748 321.795C355.154 322.235 354.559 322.675 353.965 323.116C353.212 321.653 352.641 320.025 351.573 318.848C351.318 318.567 348.568 319.6 348.393 320.358C347.503 324.21 340.031 325.853 343.423 330.185C346.875 334.594 343.1 335.841 341.454 336.74C337.126 339.104 335.267 341.687 338.75 346.663C332.997 346.688 333.433 349.577 335.173 352.852C333.769 353.731 332.625 354.447 331.42 355.201C329.726 353.394 330.631 348.768 325.972 349.195C325.833 347.319 325.031 344.107 325.667 343.791C328.894 342.189 327.823 339.783 328.145 337.249C328.463 334.747 327.47 330.896 331.622 329.964C330.811 327.711 330 325.457 328.948 322.532C330.268 322.764 331.85 323.043 334.037 323.427C335.689 322.173 335.563 320.704 334.504 317.803C333.352 314.647 334.358 310.645 334.797 307.057C334.842 306.692 337.454 306.641 337.416 306.646C340.3 305.465 341.96 304.826 343.584 304.104C344.397 303.742 345.612 303.37 345.797 302.749C346.005 302.053 345.446 300.485 344.891 300.305C339.434 298.525 341.087 294.639 342.07 291.052C343.854 284.538 348.511 281.317 355.368 281.041C358.219 280.926 361.032 279.864 364.717 279.042C366.894 280.032 370.254 281.557 374.44 283.459C370.449 289.408 366.676 295.031 362.609 300.909Z" fill="#FAFAFA"/>
<path d="M794.048 135.105C791.276 140.564 788.374 145.961 785.784 151.505C784.3 154.68 783.323 158.091 781.45 160.066C779.811 160.495 777.655 160.423 776.647 161.464C774.874 163.294 774.211 166.279 772.326 167.899C770.379 169.572 767.529 170.195 765.104 171.265C767.451 178.842 767.426 178.764 760.391 181.109C759.375 181.447 758.746 182.95 757.76 184.128C756.607 180.831 755.01 179.714 751.964 182.366C750.62 183.536 748.498 184.14 746.657 184.342C743.029 184.74 739.35 184.727 735.691 184.791C732.026 184.855 728.36 184.805 723.564 184.805C725.438 183.157 726.49 181.558 727.915 181.089C736.57 178.236 742.366 172.443 746.085 164.308C746.244 163.959 746.817 163.717 747.246 163.587C749.401 162.934 751.572 162.336 753.95 161.658C755.125 162.489 756.858 163.716 758.592 164.942C758.815 162.289 759.038 159.637 759.265 156.935C772.159 155.286 772.196 155.264 772.332 148.907C774.692 148.406 777.07 147.9 779.064 147.475C780.173 143.053 781.185 139.018 782.196 134.984C782.755 135.489 783.315 135.994 783.874 136.499C786.695 135.795 789.516 135.092 792.919 134.344C793.737 134.531 793.92 134.8 794.048 135.105Z" fill="#F8F8F8"/>
<path d="M1013.1 214.981C1010.38 213.571 1008.08 212.131 1005.24 210.351C1005.01 212.539 1004.85 214.06 1004.6 216.501C999.114 210.229 994.049 204.438 989.034 198.706C990.105 197.251 990.955 196.095 992.406 194.124C993.977 195.479 995.388 197.209 997.209 198.111C998.81 198.904 1001.31 199.593 1002.64 198.878C1005.72 197.214 1008.34 194.677 1011.16 192.48C1016.34 197.638 1020.85 198.163 1028.38 194.892C1029.55 194.381 1031.44 195.172 1032.88 195.702C1034.35 196.247 1035.58 197.636 1037.06 197.913C1042.07 198.855 1043.61 201.641 1042.94 206.559C1042.43 210.29 1044.18 214.664 1039.07 216.603C1038.69 216.75 1038.55 217.562 1038.65 217.354C1036.42 215.77 1034.59 213.791 1032.37 213.116C1030.44 212.526 1028.05 213.518 1025.86 213.607C1022.78 213.732 1019.69 213.564 1016.61 213.743C1015.56 213.803 1014.54 214.529 1013.1 214.981Z" fill="#FAFAFA"/>
<path d="M806.112 107.283C805.641 105.957 805.256 103.515 804.684 103.47C796.233 102.807 802.66 96.7751 801.138 93.6497C800.433 92.2012 801.018 90.1242 801.018 88.3322C800.515 88.2636 800.013 88.195 799.511 88.1264C798.79 88.9079 798.069 89.6894 796.405 91.4934C795.443 86.7274 793.951 82.633 794.08 78.5907C794.146 76.5652 797.167 74.6347 799.702 71.6647C799.104 71.2272 797.593 70.1214 796.374 69.2303C798.669 67.8313 798.24 65.1643 794.691 62.9327C793.639 62.2706 792.715 61.1127 792.178 59.9722C790.411 56.2182 788.515 52.3662 783.862 52.1321C780.567 51.9664 780.2 49.9437 779.866 47.7553C779.582 45.8916 779.808 43.9501 779.808 42.043C780.403 41.9727 780.998 41.9024 781.593 41.832C783.358 44.1192 785.122 46.4064 787.309 49.2414C788.549 48.9892 790.49 48.1376 792.313 48.3433C794.439 48.5834 796.524 49.6136 798.515 50.5412C801.486 51.9256 804.413 53.4275 807.251 55.0655C808.597 55.8425 810.673 56.9854 810.745 58.0728C811.188 64.7939 811.233 71.5462 811.252 78.2886C811.267 83.4316 811.562 88.6546 810.783 93.6951C810.087 98.1926 808.09 102.489 806.355 107.049C806.042 107.223 806.112 107.283 806.112 107.283Z" fill="#FAFAFA"/>
<path d="M638.094 56.0147C638.096 51.2499 638.096 46.9813 638.096 42.7126C638.483 42.4912 638.87 42.2698 639.257 42.0483C643.511 46.3036 647.923 50.4156 651.977 54.854C656.098 59.3657 659.867 64.1991 664.478 69.7149C660.589 73.3518 657.404 77.8535 653.058 79.9442C649.13 81.8342 643.938 81.1811 639.292 81.33C638.933 81.3415 638.167 78.8334 638.144 77.4872C638.028 70.4968 638.091 63.5033 638.094 56.0147Z" fill="#F8F8F8"/>
<path d="M357.532 397.013C351.263 392.73 345.183 388.732 339.816 383.935C338.68 382.919 340.051 376.746 340.439 376.729C346.54 376.452 344.293 371.598 345.706 367.204C349.058 370.181 351.969 372.765 354.879 375.349C354.257 375.536 353.634 375.723 353.011 375.91C351.599 378.843 350.188 381.776 348.777 384.709C349.163 384.952 349.55 385.195 349.937 385.439C351.986 384.19 354.035 382.942 356.383 381.51C357.673 383.268 358.672 385.168 360.155 386.545C363.736 389.867 367.028 386.127 370.477 385.793C374.825 385.373 379.167 384.608 383.498 384.692C383.992 384.702 384.397 389.219 384.817 391.499C385.981 392.516 387.504 393.846 389.026 395.176C387.198 396.111 385.368 397.848 383.542 397.845C375.019 397.831 366.497 397.336 357.532 397.013Z" fill="#F7F7F7"/>
<path d="M588.012 193.786C595.761 194.175 603.352 194.922 611.083 195.683C611.227 194.093 611.307 193.204 611.541 190.604C614.18 193.869 617.393 196.005 617.498 198.285C618.026 209.72 617.74 221.193 617.74 233.274C614.566 232.751 611.725 232.282 608.655 231.776C608.483 228.873 607.826 225.997 608.25 223.291C609.3 216.585 606.275 212.11 601.537 207.905C596.708 203.619 592.393 198.755 588.012 193.786Z" fill="#F6F6F6"/>
<path d="M740.694 27.4331C741.845 28.5057 742.749 29.277 743.652 30.0483C744.619 28.4871 745.585 26.9258 746.708 25.1121C750.339 27.5651 754.357 29.6851 759.513 25.0601C759.682 28.5318 759.802 30.9969 759.937 33.7522C761.214 34.1536 762.587 34.585 764.956 35.3298C763.191 38.4079 761.592 41.1964 760.037 43.9062C752.08 40.8368 745.33 41.6953 739.588 48.5738C740.56 38.4365 739.085 32.2063 731.109 28.4604C733.747 24.109 737.252 26.6068 740.694 27.4331Z" fill="#F7F7F7"/>
<path d="M790.964 229.8C785.96 229.941 780.956 230.092 775.952 230.207C775.47 230.218 774.918 229.803 774.508 229.932C767.319 232.196 767.837 227.619 767.938 222.886C768.127 214.09 767.992 205.288 767.992 195.252C771.122 196.566 773.6 197.607 776.364 198.767C775.183 200.522 774.489 201.553 774.614 201.367C775.67 204.454 776.666 206.397 776.948 208.439C777.286 210.886 777.009 213.417 777.01 215.911C777.011 221.036 782.864 227.347 788.784 228.312C789.872 228.996 790.418 229.398 790.964 229.8Z" fill="#F9F9F9"/>
<path d="M605.116 287.217C607.66 287.223 608.696 286.284 607.599 284.169C606.936 282.891 605.941 281.785 605.253 280.822C607.092 279.49 608.646 277.941 610.52 277.132C612.189 276.412 614.29 276.1 616.041 276.437C616.817 276.586 617.653 278.768 617.684 280.046C617.847 286.698 617.76 293.357 617.76 300.704C608.833 301.142 609.385 307.702 610.385 314.518C609.885 314.427 609.384 314.336 608.884 314.245C608.636 310.771 607.676 307.165 608.289 303.849C609.547 297.041 606.857 292.343 601.855 288.369C601.337 287.958 600.901 287.44 600.454 286.947C600.362 286.845 600.392 286.632 600.31 286.12C601.852 286.471 603.285 286.798 605.116 287.217Z" fill="#F0F0F0"/>
<path d="M408.95 391.963C406.645 392.498 404.619 392.749 402.878 393.59C398.487 395.711 395.151 396.501 394.945 389.757C394.909 388.555 393.035 387.41 392.014 386.242C394.925 383.836 424.127 383.305 428.394 386.319C421.707 388.296 415.533 390.122 408.95 391.963Z" fill="#F0F0F0"/>
<path d="M645.906 125.992C652.993 124.265 655.481 129.976 659.859 133.329C656.466 134.607 653.535 136.009 650.449 136.819C639.279 139.751 637.788 138.454 638.24 125.992C640.614 125.992 643.027 125.992 645.906 125.992Z" fill="#FAFAFA"/>
<path d="M936.699 209.371C933.966 211.573 931.23 213.341 927.508 215.745C926.941 205.185 925.742 196.387 936.07 190.073C936.29 196.691 936.493 202.813 936.699 209.371Z" fill="#E9E9E9"/>
<path d="M515.346 351.437C517.163 351.095 518.598 350.953 521.164 350.7C517.343 357.819 511.412 361.834 507.067 366.411C503.563 364.942 500.313 363.579 496.991 362.186C499.303 358.284 501.934 356.031 506.25 355.811C507.161 355.764 507.945 353.247 508.928 351.638C510.199 351.638 512.581 351.638 515.346 351.437Z" fill="#F6F6F6"/>
<path d="M794.33 134.887C793.92 134.8 793.737 134.531 793.294 134.169C793.492 131.611 794.192 129.186 794.207 126.756C794.219 124.768 793.675 123.479 795.444 121.317C797.077 119.322 795.791 114.938 795.791 110.357C798.267 109.482 801.79 108.236 805.713 107.137C806.112 107.283 806.041 107.223 806.014 107.194C802.973 115.092 799.995 123.034 796.908 130.934C796.384 132.273 795.389 133.428 794.33 134.887Z" fill="#E9E9E9"/>
<path d="M65.4183 216.961C69.311 216.627 73.0142 215.712 76.2862 216.528C79.4377 217.313 82.5302 219.671 80.1801 225.287C76.0537 224.68 71.613 224.027 67.1723 223.375C67.2381 223.011 67.3039 222.647 67.3696 222.283C65.4453 222.923 63.5209 223.562 60.4668 224.577C62.4393 221.368 63.7397 219.252 65.4183 216.961Z" fill="#F0F0F0"/>
<path d="M39.2031 220.558C43.6891 218.793 48.3278 217.201 53.0822 216.117C53.9169 215.926 55.5392 217.677 56.2586 218.859C57.2465 220.483 57.72 222.42 58.4234 224.247C51.3851 226.019 45.2037 224.487 39.2031 220.558Z" fill="#F6F6F6"/>
<path d="M339.461 202.787C338.99 202.787 338.995 202.321 339.027 202.091C342.719 202.108 342.719 202.108 343.186 195.689C350.548 192.647 351.058 192.925 354.258 200.479C354.616 201.323 356.197 201.648 357.621 202.155C358.033 202.095 358.054 202.432 358.035 202.6C351.988 202.774 345.96 202.781 339.461 202.787Z" fill="#F0F0F0"/>
<path d="M467.05 371.942C468.508 373.049 470.261 373.929 471.337 375.329C472.331 376.623 473.018 378.47 473.032 380.081C473.041 381.068 471.676 382.275 470.657 383.007C469.513 383.83 468.063 384.229 466.754 384.809C462.241 381.278 462.036 379.216 465.696 375.219C466.19 374.68 466.408 373.889 466.753 372.752C466.753 372.29 467.05 371.942 467.05 371.942Z" fill="#F0F0F0"/>
<path d="M589.76 130.893C591.524 129.974 592.958 129.228 595.28 128.02C594.031 133.289 597.043 138.448 592.113 142.415C589.884 139.083 587.87 136.072 585.768 132.93C587.204 132.199 588.318 131.633 589.76 130.893Z" fill="#F0F0F0"/>
<path d="M766.507 100.403C766.967 101.994 767.387 103.196 767.936 104.765C766.545 104.908 765.494 105.015 764.011 105.167C764.352 106.346 764.673 107.458 764.982 108.53C764.457 108.782 764.008 109.1 763.924 109.022C763.002 108.167 761.223 106.965 761.401 106.395C762.797 101.92 764.57 97.5623 766.403 92.7034C768.521 95.5082 768.423 95.42 766.686 97.3491C766.211 97.8759 766.519 99.1067 766.507 100.403Z" fill="#E9E9E9"/>
<path d="M24.0416 214.337C29.531 213.703 32.0492 214.849 34.5898 219.666C30.6029 218.857 27.3975 218.308 24.2787 217.445C23.8805 217.335 23.934 215.591 24.0416 214.337Z" fill="#E9E9E9"/>
<path d="M456.782 380.465C455.853 378.86 455.046 377.616 453.98 375.976C456.507 374.721 459.055 373.456 461.602 372.192C461.887 372.546 462.173 372.901 462.458 373.256C461.138 376.472 459.818 379.688 458.197 383.639C457.591 382.32 457.248 381.574 456.782 380.465Z" fill="#E9E9E9"/>
<path d="M791.388 229.828C790.418 229.398 789.872 228.996 789.169 228.389C798.791 228.184 808.569 228.184 818.347 228.184C818.347 228.298 818.347 228.413 818.347 228.527C809.502 228.97 800.657 229.414 791.388 229.828Z" fill="#E9E9E9"/>
<path d="M528.467 349.481C528.983 350.647 529.394 351.609 529.655 352.611C529.9 353.553 529.987 354.536 530.283 356.361C524.501 351.277 524.461 351.157 527.597 349.027C528.058 349.059 528.178 349.177 528.467 349.481Z" fill="#FCFCFC"/>
<path d="M466.599 372.459C465.936 372.268 465.428 371.907 464.137 370.992C465.65 371.18 466.236 371.253 466.936 371.634C467.05 371.942 466.753 372.29 466.599 372.459Z" fill="#F0F0F0"/>
<path d="M554.121 324.784C549.714 327.956 550.575 323.625 548.733 321.712C552.022 320.902 554.638 319.673 554.121 324.784Z" fill="#020202"/>
<path d="M713.743 233.553C702.569 238.912 690.967 236.429 679.537 237.053C680.543 235.555 681.479 234.161 683.217 231.573C677.794 232.057 673.756 232.363 669.732 232.792C666.117 233.178 665.363 232.541 665.138 228.466C684.712 228.466 704.278 228.466 723.844 228.466C723.866 228.98 723.888 229.493 723.91 230.007C721.528 230.007 719.126 230.197 716.768 229.957C714.056 229.681 713.72 231.082 713.743 233.553Z" fill="#FAFAFA"/>
</g>
<defs>
<clipPath id="clip0_9_131">
<rect width="1327" height="415" fill="white"/>
</clipPath>
</defs>
</svg>
