<svg width="256" height="256" viewBox="0 0 256 256" fill="none" xmlns="http://www.w3.org/2000/svg">
<path d="M185.708 197.65C185.468 199.386 185.067 201.119 185.03 202.86C184.988 204.789 185.278 206.726 185.424 208.66C187.192 208.222 188.96 207.784 190.862 207.312C192.091 208.836 193.515 210.602 194.94 212.368C195.348 212.149 195.756 211.93 196.164 211.711C195.4 209.413 194.635 207.115 193.871 204.818C194.42 204.866 194.968 204.914 195.517 204.962C195.888 203.395 196.28 201.833 196.625 200.26C196.933 198.858 197.188 197.445 197.467 196.037C198.053 196.054 198.639 196.071 199.225 196.088C194.361 186.002 189.497 175.917 184.634 165.834C193.317 161.729 195.347 171.978 201.857 173.306C197.141 164.648 192.733 156.553 188.564 148.898C184.856 150.827 180.809 152.876 176.825 155.042C175.683 155.663 174.267 156.397 173.753 157.456C169.975 165.244 162.233 168.847 156.108 174.066C153.205 176.541 148.612 176.942 145.397 179.168C142.799 180.967 141.182 184.147 139.002 186.601C138.149 187.561 137.054 188.527 135.878 188.928C133.872 189.612 130.863 188.571 130.964 192.29C129.856 192.29 128.748 192.29 126.919 192.29C125.545 198.119 119.965 199.067 113.807 200.246C114.891 197.665 115.687 195.766 116.484 193.868C111.959 196.98 108.023 199.811 102.294 197.049C101.998 197.012 102.07 197.082 102.07 197.082C102.429 196.188 102.643 194.617 103.17 194.504C108.426 193.376 110.137 187.281 115.305 185.982C116.148 185.77 116.567 183.875 117.553 182.081C87.2185 184.38 63.3425 173.623 45.8788 148.31C38.6567 149.739 34.3442 154.812 32.668 162.657C32.2828 164.46 30.6196 165.952 29.8241 167.713C27.7984 172.199 25.5332 176.636 24.1207 181.321C22.9055 185.352 22.004 188.971 17.1624 190.105C15.9202 190.396 14.7449 192.092 14.0679 193.413C13.0574 195.386 12.5163 197.598 11.6959 199.935C8.82271 197.502 6.83238 195.227 8.7978 191.142C9.58243 189.511 8.68067 187.144 9.10992 185.239C9.37226 184.075 10.7061 183.153 11.8242 181.8C12.4156 179.393 13.4245 176.237 13.8964 173.002C14.1725 171.11 12.8422 168.758 13.5405 167.197C15.4399 162.951 18.0151 159.005 20.377 154.971C20.6935 154.431 21.7531 154.068 21.7467 153.634C21.6207 145.115 28.7436 140.511 32.5612 134.223C35.2591 129.78 34.5466 125.679 33.8328 121.62C29.9791 99.705 33.4114 78.8634 45.1014 60.2676C54.8659 44.7347 69.465 34.2859 87.4068 28.9663C98.9419 25.5463 110.505 25.4421 122.365 26.8871C140.265 29.0681 155.14 37.1101 167.215 49.9478C176.668 59.9978 185.403 70.9025 187.337 85.3723C187.616 87.4617 186.893 89.6851 186.634 91.8464C184.097 91.264 180.791 91.4714 179.198 89.9202C176.592 87.3836 174.529 87.9451 171.746 88.8333C170.092 89.361 167.692 89.7071 166.412 88.8961C158.743 84.0361 151.84 87.1523 144.69 90.1462C143.01 90.8497 140.511 89.4953 138.743 90.1082C132.806 92.1658 129.618 87.4434 125.637 86.7135C122.404 87.2103 119.094 87.4309 115.968 88.3092C114.145 88.8216 112.588 90.344 110.963 91.4868C108.299 93.3613 105.677 95.2967 102.451 97.6308C102.862 102.112 106.561 103.396 111.793 103.714C115.229 103.923 117.538 102.058 121.605 101.966C120.688 106.995 120.086 111.698 118.859 116.231C118.458 117.713 116.64 119.351 115.109 119.89C109.997 121.69 104.641 122.805 99.5554 124.665C97.9253 125.261 96.8438 127.357 95.8828 128.374C98.112 135.775 100.352 143.213 102.686 150.96C104.54 150.701 106.303 150.456 107.203 150.33C110.529 153.786 113.467 157.007 116.647 159.968C117.141 160.427 119.215 160.091 119.744 159.451C121.759 157.013 123.072 157.776 125.078 159.579C126.129 160.524 129.632 160.726 129.725 160.46C131.723 154.733 135.756 156.931 139.519 157.616C144.162 158.46 148.845 159.081 154.203 159.905C155.115 158.701 155.034 152.577 159.933 157.882C160.272 158.249 161.768 158.087 162.297 157.652C165.399 155.098 168.484 152.504 171.369 149.711C178.713 142.599 183.975 133.258 193.859 128.851C194.641 128.502 195.189 127.5 195.701 126.708C196.225 125.898 196.374 124.77 197.028 124.131C201.008 120.245 205.335 116.75 208.2 111.759C208.797 110.718 211.704 111.003 213.57 110.672C214.597 104.423 216.344 103.081 219.937 104.258C221.961 102.77 223.274 101.999 224.348 100.976C226.928 98.5214 229.966 96.2848 231.72 93.3114C233.003 91.1361 233.286 88.1452 236.411 89.4224C237.232 89.7579 237.522 94.0404 236.561 95.5713C234.048 99.5743 230.748 103.092 227.687 106.741C223.411 111.84 219.068 116.884 214.165 122.641C213.463 122.631 211.724 120.485 209.524 124.329C205.627 131.138 200.05 136.995 195.07 143.166C194.085 144.387 192.628 145.227 190.595 146.892C198.489 152.93 206.252 158.868 214.018 164.808C212.225 155.669 212.22 155.471 213.909 155.47C212.761 152.901 211.622 150.352 210.484 147.803C210.763 147.367 211.042 146.931 211.322 146.495C215.462 148.228 220.161 149.225 223.627 151.849C230.661 157.176 236.661 163.62 240.48 171.879C244.019 179.536 243.007 181.643 234.757 182.238C230.706 192.562 233.152 198.754 241.449 199.177C243.123 210.241 223.925 230.024 210.775 232.165C195.545 234.644 182.142 231.905 170.363 221.848C164.553 216.887 160.465 210.141 160.245 205.382C164.843 207.123 169.488 208.883 174.996 210.969C174.996 204.23 174.996 198.691 174.996 193.152C175.335 193.074 175.673 192.997 176.011 192.92C176.374 193.603 176.904 194.246 177.073 194.974C178.312 200.308 182.785 195.82 185.465 197.703C185.781 197.733 185.708 197.65 185.708 197.65Z" fill="white"/>
<path d="M231.076 44.9188C228.33 49.4424 226.484 45.3768 224.657 44.3913C221.525 44.9584 218.62 45.2538 215.856 46.0437C212.418 47.0259 209.041 48.2831 205.744 49.672C202.989 50.8324 194.925 49.9859 193.868 48.7588C188.247 50.7028 182.934 52.5405 177.155 54.5391C179.002 48.5323 183.22 45.1631 188.695 44.9165C188.881 43.7227 189.075 42.4807 189.279 41.1726C194.732 40.0012 200.15 39.1861 205.326 37.5868C208.15 36.7142 210.46 35.5216 212.856 38.1756C213.034 38.3729 214.185 37.5825 214.921 37.4061C217.284 36.8393 229.326 42.1087 230.92 44.6622C231.003 45.0016 231.076 44.9188 231.076 44.9188Z" fill="white"/>
<path d="M45.2132 212.009C50.6972 209.322 55.7982 207.903 61.8075 211.961C60.027 213.213 58.8829 214.571 57.4974 214.894C52.1754 216.136 46.7567 216.96 41.4208 218.15C40.2596 218.409 39.2898 219.532 38.2352 220.262C34.4078 222.912 29.8703 222.483 25.6279 219.528C22.2553 217.18 18.187 215.697 15.1773 212.995C11.4869 209.681 12.1558 208.119 17.2067 206.331C14.6465 203.063 16.2059 201.253 19.4638 200.136C21.1981 204.915 22.9394 209.715 24.5105 214.045C31.6346 213.334 38.2273 212.677 45.2132 212.009Z" fill="white"/>
<path d="M230.962 45.0378C236.049 46.605 241.591 47.393 246.157 49.9348C249.08 51.5619 250.561 55.7783 252.364 59.3595C248.668 58.3591 246.965 58.9291 246.932 62.7766C246.892 67.3827 247.039 72.1858 245.796 76.5289C244.639 80.5713 241.764 84.1217 239.638 87.9001C235.625 84.1306 236.686 80.515 242.993 76.3222C241.75 74.0939 239.925 71.9849 239.41 69.5939C238.817 66.8372 238.681 63.5773 239.619 60.9983C240.786 57.7861 240.338 57.0441 238.64 57.3353C236.487 54.5698 234.693 52.4819 233.162 50.2157C232.248 48.8615 231.746 47.228 231.068 45.3194C231.076 44.9188 231.003 45.0017 230.962 45.0378Z" fill="#FEFEFE"/>
<path d="M79.1344 198.017C81.3388 199.643 83.9343 201.009 84.645 203.036C85.0198 204.105 82.1062 206.326 80.7397 207.953C80.2653 209.577 79.7332 211.398 78.9941 213.927C77.0055 212.337 75.8998 211.454 74.7934 210.568C71.2728 209.101 71.0307 208.881 72.204 207.46C70.6831 207.158 69.3893 206.901 67.8867 206.603C69.3282 200.803 75.2718 200.963 79.1344 198.017Z" fill="#FEFEFE"/>
<path d="M101.963 196.976C101.367 202.988 98.429 205.148 93.515 202.955C92.5146 202.509 91.0007 201.051 91.1703 200.574C91.5782 199.428 92.7036 198.003 93.7923 197.741C96.2265 197.156 98.8149 197.212 101.705 197.044C102.07 197.082 101.997 197.012 101.963 196.976Z" fill="#FEFEFE"/>
<path d="M185.822 197.77C185.355 194.7 184.847 191.594 184.339 188.488C185.046 188.284 185.752 188.081 186.459 187.877C187.949 191.689 189.439 195.501 190.929 199.313C190.32 199.682 189.711 200.051 189.103 200.42C188.244 199.63 187.385 198.84 186.117 197.85C185.708 197.65 185.781 197.733 185.822 197.77Z" fill="#FEFEFE"/>
<path d="M158.776 191.438C159.673 195.114 160.339 198.444 161.092 202.208C155.259 199.251 154.54 195.1 158.776 191.438Z" fill="#FEFEFE"/>
<path d="M224.184 77.4688C219.723 77.2023 221.704 73.8019 222.399 72.7062C223.142 71.5334 225.72 71.5234 227.497 71.0059C227.806 71.6031 228.114 72.2003 228.423 72.7976C227.111 74.2635 225.799 75.7293 224.184 77.4688Z" fill="white"/>
</svg>
